<svg width="1282" height="1282" viewBox="0 0 1282 1282" fill="none" xmlns="http://www.w3.org/2000/svg">
<path d="M222.436 252C178.825 252 137 269.339 106.162 300.203C75.3245 331.068 58 372.928 58 416.577V865.423C58 909.072 75.3245 950.932 106.162 981.797C137 1012.66 178.825 1030 222.436 1030H730.692C774.303 1030 816.128 1012.66 846.966 981.797C877.804 950.932 895.128 909.072 895.128 865.423V770.028L1099.57 952.26C1147.7 995.17 1224 960.938 1224 896.364V363.613C1224 298.979 1147.7 264.807 1099.57 307.717L895.128 489.948V416.577C895.128 372.928 877.804 331.068 846.966 300.203C816.128 269.339 774.303 252 730.692 252H222.436Z" fill="black"/>
<path d="M680 585H513.5L550.5 363L273 696H439.5L402.5 918L680 585Z" fill="#FA9A00"/>
</svg>
